<svg version="1.1" preserveAspectRatio="none" xmlns="http://www.w3.org/2000/svg" width="500" height="500" viewBox="0 0 500 500"><rect width="100%" height="100%" fill="#141414" fill-opacity="1"/><svg viewBox="60.7266 208.2384 377.9197 83" width="333" height="73.134583881179" x="83.5px" y="213.4327px" xmlns="http://www.w3.org/2000/svg" xmlns:xlink="http://www.w3.org/1999/xlink" preserveAspectRatio="none"><defs></defs><style>.companyName {fill:#C9EF73;fill-opacity:1;}.icon1 {fill:#C9EF73;fill-opacity:1;}.icon3-str {stroke:#F5F5F5;stroke-opacity:1;}</style><g opacity="1" transform="rotate(0 160.4808 274.2384)">
<svg width="178.4113" height="17" x="160.4808" y="274.2384" version="1.1" preserveAspectRatio="none" viewBox="4.56 -29.88 397.12 37.84">
  <g transform="matrix(1 0 0 1 0 0)" class="icon1"><path id="id-6izo4zJp18" d="M25.04-28L27.96-28L27.96 0L25.52 0L7.52-22.72L7.52 0L4.56 0L4.56-28L7-28L25.04-5.28L25.04-28Z M45.88 0.20Q42.84 0.20 40.40-1.18Q37.96-2.56 36.56-5Q35.16-7.44 35.16-10.52L35.16-10.52Q35.16-13.60 36.56-16.04Q37.96-18.48 40.40-19.84Q42.84-21.20 45.88-21.20L45.88-21.20Q48.92-21.20 51.36-19.84Q53.80-18.48 55.18-16.04Q56.56-13.60 56.56-10.52L56.56-10.52Q56.56-7.44 55.18-5Q53.80-2.56 51.36-1.18Q48.92 0.20 45.88 0.20L45.88 0.20ZM45.88-2.32Q48.12-2.32 49.90-3.34Q51.68-4.36 52.68-6.24Q53.68-8.12 53.68-10.52L53.68-10.52Q53.68-12.92 52.68-14.80Q51.68-16.68 49.90-17.70Q48.12-18.72 45.88-18.72L45.88-18.72Q43.64-18.72 41.86-17.70Q40.08-16.68 39.06-14.80Q38.04-12.92 38.04-10.52L38.04-10.52Q38.04-8.12 39.06-6.24Q40.08-4.36 41.86-3.34Q43.64-2.32 45.88-2.32L45.88-2.32Z M94.24-25.44L78-25.44L78-14.44L92.48-14.44L92.48-11.88L78-11.88L78 0L75.04 0L75.04-28L94.24-28L94.24-25.44Z M107.08-21.20Q111.20-21.20 113.40-19.14Q115.60-17.08 115.60-13.04L115.60-13.04L115.60 0L112.88 0L112.88-3.28Q111.92-1.64 110.06-0.72Q108.20 0.20 105.64 0.20L105.64 0.20Q102.12 0.20 100.04-1.48Q97.96-3.16 97.96-5.92L97.96-5.92Q97.96-8.60 99.90-10.24Q101.84-11.88 106.08-11.88L106.08-11.88L112.76-11.88L112.76-13.16Q112.76-15.88 111.24-17.30Q109.72-18.72 106.80-18.72L106.80-18.72Q104.80-18.72 102.96-18.06Q101.12-17.40 99.80-16.24L99.80-16.24L98.52-18.36Q100.12-19.72 102.36-20.46Q104.60-21.20 107.08-21.20L107.08-21.20ZM106.08-2.04Q108.48-2.04 110.20-3.14Q111.92-4.24 112.76-6.32L112.76-6.32L112.76-9.76L106.16-9.76Q100.76-9.76 100.76-6L100.76-6Q100.76-4.16 102.16-3.10Q103.56-2.04 106.08-2.04L106.08-2.04Z M126.84-16.92Q127.84-19.04 129.82-20.12Q131.80-21.20 134.72-21.20L134.72-21.20L134.72-18.44L134.04-18.48Q130.72-18.48 128.84-16.44Q126.96-14.40 126.96-10.72L126.96-10.72L126.96 0L124.12 0L124.12-21.04L126.84-21.04L126.84-16.92Z M166.88-21.20Q170.84-21.20 173.10-18.92Q175.36-16.64 175.36-12.20L175.36-12.20L175.36 0L172.52 0L172.52-11.92Q172.52-15.20 170.94-16.92Q169.36-18.64 166.48-18.64L166.48-18.64Q163.20-18.64 161.32-16.62Q159.44-14.60 159.44-11.04L159.44-11.04L159.44 0L156.60 0L156.60-11.92Q156.60-15.20 155.02-16.92Q153.44-18.64 150.52-18.64L150.52-18.64Q147.28-18.64 145.38-16.62Q143.48-14.60 143.48-11.04L143.48-11.04L143.48 0L140.64 0L140.64-21.04L143.36-21.04L143.36-17.20Q144.48-19.12 146.48-20.16Q148.48-21.20 151.08-21.20L151.08-21.20Q153.72-21.20 155.66-20.08Q157.60-18.96 158.56-16.76L158.56-16.76Q159.72-18.84 161.90-20.02Q164.08-21.20 166.88-21.20L166.88-21.20Z M183.88 0L183.88-21.04L186.72-21.04L186.72 0L183.88 0ZM185.32-25.64Q184.44-25.64 183.84-26.24Q183.24-26.84 183.24-27.68L183.24-27.68Q183.24-28.48 183.84-29.08Q184.44-29.68 185.32-29.68L185.32-29.68Q186.20-29.68 186.80-29.10Q187.40-28.52 187.40-27.72L187.40-27.72Q187.40-26.84 186.80-26.24Q186.20-25.64 185.32-25.64L185.32-25.64Z M206.16-21.20Q210.12-21.20 212.46-18.90Q214.80-16.60 214.80-12.20L214.80-12.20L214.80 0L211.96 0L211.96-11.92Q211.96-15.20 210.32-16.92Q208.68-18.64 205.64-18.64L205.64-18.64Q202.24-18.64 200.26-16.62Q198.28-14.60 198.28-11.04L198.28-11.04L198.28 0L195.44 0L195.44-21.04L198.16-21.04L198.16-17.16Q199.32-19.08 201.38-20.14Q203.44-21.20 206.16-21.20L206.16-21.20Z M240.16-21.04L242.88-21.04L242.88-2.56Q242.88 2.80 240.26 5.38Q237.64 7.96 232.36 7.96L232.36 7.96Q229.44 7.96 226.82 7.10Q224.20 6.24 222.56 4.72L222.56 4.72L224.00 2.56Q225.52 3.92 227.70 4.68Q229.88 5.44 232.28 5.44L232.28 5.44Q236.28 5.44 238.16 3.58Q240.04 1.72 240.04-2.20L240.04-2.20L240.04-4.88Q238.72-2.88 236.58-1.84Q234.44-0.80 231.84-0.80L231.84-0.80Q228.88-0.80 226.46-2.10Q224.04-3.40 222.66-5.74Q221.28-8.08 221.28-11.04L221.28-11.04Q221.28-14 222.66-16.32Q224.04-18.64 226.44-19.92Q228.84-21.20 231.84-21.20L231.84-21.20Q234.52-21.20 236.68-20.12Q238.84-19.04 240.16-17L240.16-17L240.16-21.04ZM232.12-3.32Q234.40-3.32 236.24-4.30Q238.08-5.28 239.10-7.04Q240.12-8.80 240.12-11.04L240.12-11.04Q240.12-13.28 239.10-15.02Q238.08-16.76 236.26-17.74Q234.44-18.72 232.12-18.72L232.12-18.72Q229.84-18.72 228.02-17.76Q226.20-16.80 225.18-15.04Q224.16-13.28 224.16-11.04L224.16-11.04Q224.16-8.80 225.18-7.04Q226.20-5.28 228.02-4.30Q229.84-3.32 232.12-3.32L232.12-3.32Z M284.00-28L286.92-28L286.92 0L284.48 0L266.48-22.72L266.48 0L263.52 0L263.52-28L265.96-28L284.00-5.28L284.00-28Z M304.84 0.20Q301.80 0.20 299.36-1.18Q296.92-2.56 295.52-5Q294.12-7.44 294.12-10.52L294.12-10.52Q294.12-13.60 295.52-16.04Q296.92-18.48 299.36-19.84Q301.80-21.20 304.84-21.20L304.84-21.20Q307.88-21.20 310.32-19.84Q312.76-18.48 314.14-16.04Q315.52-13.60 315.52-10.52L315.52-10.52Q315.52-7.44 314.14-5Q312.76-2.56 310.32-1.18Q307.88 0.20 304.84 0.20L304.84 0.20ZM304.84-2.32Q307.08-2.32 308.86-3.34Q310.64-4.36 311.64-6.24Q312.64-8.12 312.64-10.52L312.64-10.52Q312.64-12.92 311.64-14.80Q310.64-16.68 308.86-17.70Q307.08-18.72 304.84-18.72L304.84-18.72Q302.60-18.72 300.82-17.70Q299.04-16.68 298.02-14.80Q297.00-12.92 297.00-10.52L297.00-10.52Q297.00-8.12 298.02-6.24Q299.04-4.36 300.82-3.34Q302.60-2.32 304.84-2.32L304.84-2.32Z M334.00 0L334.00-28L336.96-28L336.96-2.56L352.64-2.56L352.64 0L334.00 0Z M357.76 0L357.76-21.04L360.60-21.04L360.60 0L357.76 0ZM359.20-25.64Q358.32-25.64 357.72-26.24Q357.12-26.84 357.12-27.68L357.12-27.68Q357.12-28.48 357.72-29.08Q358.32-29.68 359.20-29.68L359.20-29.68Q360.08-29.68 360.68-29.10Q361.28-28.52 361.28-27.72L361.28-27.72Q361.28-26.84 360.68-26.24Q360.08-25.64 359.20-25.64L359.20-25.64Z M376.28-27.48Q374.44-27.48 373.50-26.48Q372.56-25.48 372.56-23.52L372.56-23.52L372.56-21.04L379.04-21.04L379.04-18.64L372.64-18.64L372.64 0L369.80 0L369.80-18.64L366.04-18.64L366.04-21.04L369.80-21.04L369.80-23.64Q369.80-26.52 371.46-28.20Q373.12-29.88 376.16-29.88L376.16-29.88Q377.36-29.88 378.48-29.54Q379.60-29.20 380.36-28.56L380.36-28.56L379.40-26.44Q378.16-27.48 376.28-27.48L376.28-27.48Z M401.68-10.52L401.64-9.64L384.04-9.64Q384.28-6.36 386.56-4.34Q388.84-2.32 392.32-2.32L392.32-2.32Q394.28-2.32 395.92-3.02Q397.56-3.72 398.76-5.08L398.76-5.08L400.36-3.24Q398.96-1.56 396.86-0.68Q394.76 0.20 392.24 0.20L392.24 0.20Q389.00 0.20 386.50-1.18Q384.00-2.56 382.60-5Q381.20-7.44 381.20-10.52L381.20-10.52Q381.20-13.60 382.54-16.04Q383.88-18.48 386.22-19.84Q388.56-21.20 391.48-21.20L391.48-21.20Q394.40-21.20 396.72-19.84Q399.04-18.48 400.36-16.06Q401.68-13.64 401.68-10.52L401.68-10.52ZM391.48-18.76Q388.44-18.76 386.38-16.82Q384.32-14.88 384.04-11.76L384.04-11.76L398.96-11.76Q398.68-14.88 396.62-16.82Q394.56-18.76 391.48-18.76L391.48-18.76Z"/></g>
</svg>
</g><g opacity="1" transform="rotate(0 60.7266 208.2384)">
<svg width="377.9197" height="50" x="60.7266" y="208.2384" version="1.1" preserveAspectRatio="none" viewBox="1.36 -31.32 240.95999999999998 31.880000000000003">
  <g transform="matrix(1 0 0 1 0 0)" class="companyName"><path id="id-D6z1nYkh12" d="M22.76-28.32Q22.48-24.92 22.48-22.24L22.48-22.24Q22.48-20.36 22.60-19.20L22.60-19.20L21.68-19.20Q20.88-23.72 19.28-25.56Q17.68-27.40 14.80-27.40L14.80-27.40L13.48-27.40Q12.24-27.40 11.68-27.20Q11.12-27 10.92-26.42Q10.72-25.84 10.72-24.56L10.72-24.56L10.72-14.48L12.12-14.48Q14.24-14.48 15.34-16.04Q16.44-17.60 16.88-19.76L16.88-19.76L17.80-19.76Q17.68-18.08 17.68-16L17.68-16L17.68-14.08Q17.68-12.04 17.92-8.40L17.92-8.40L17-8.40Q16.16-13.68 12.12-13.68L12.12-13.68L10.72-13.68L10.72-4.48Q10.72-2.88 11.06-2.14Q11.40-1.40 12.26-1.16Q13.12-0.92 15-0.88L15-0.88L15 0Q10.08-0.12 7.68-0.12L7.68-0.12Q5.68-0.12 2.64-0.04L2.64-0.04L1.36 0L1.36-0.80Q2.68-0.88 3.30-1.12Q3.92-1.36 4.14-2.04Q4.36-2.72 4.36-4.24L4.36-4.24L4.36-24.08Q4.36-25.60 4.14-26.28Q3.92-26.96 3.30-27.20Q2.68-27.44 1.36-27.52L1.36-27.52L1.36-28.32Q5.68-28.20 14.40-28.20L14.40-28.20Q20.28-28.20 22.76-28.32L22.76-28.32Z M29.24 0.28Q26.68 0.28 25.42-1.04Q24.16-2.36 24.16-4.52L24.16-4.52Q24.16-6.32 25.10-7.50Q26.04-8.68 27.38-9.32Q28.72-9.96 30.80-10.68L30.80-10.68Q33-11.44 34.02-12.06Q35.04-12.68 35.04-13.76L35.04-13.76L35.04-16.88Q35.04-18.56 34.26-19.50Q33.48-20.44 31.84-20.44L31.84-20.44Q29.92-20.44 28.92-19.48L28.92-19.48Q30.04-19.08 30.66-18.28Q31.28-17.48 31.28-16.40L31.28-16.40Q31.28-15.04 30.36-14.24Q29.44-13.44 28.12-13.44L28.12-13.44Q26.72-13.44 25.96-14.32Q25.20-15.20 25.20-16.52L25.20-16.52Q25.20-17.64 25.74-18.42Q26.28-19.20 27.40-19.88L27.40-19.88Q28.48-20.52 30.06-20.88Q31.64-21.24 33.52-21.24L33.52-21.24Q35.48-21.24 36.92-20.84Q38.36-20.44 39.32-19.48L39.32-19.48Q40.20-18.60 40.50-17.32Q40.80-16.04 40.80-13.84L40.80-13.84L40.80-2.96Q40.80-2 40.98-1.60Q41.16-1.20 41.68-1.20L41.68-1.20Q42.28-1.20 43.12-1.88L43.12-1.88L43.52-1.20Q41.72 0.28 39.12 0.28L39.12 0.28Q36.92 0.28 36.04-0.60Q35.16-1.48 35.12-2.96L35.12-2.96Q33.12 0.28 29.24 0.28L29.24 0.28ZM32.32-2.28Q33.88-2.28 35.04-3.92L35.04-3.92L35.04-12.12Q34.56-11.32 33-10.36L33-10.36Q31.44-9.36 30.64-8.36Q29.84-7.36 29.84-5.48L29.84-5.48Q29.84-3.84 30.52-3.06Q31.20-2.28 32.32-2.28L32.32-2.28Z M58.44-21.24Q60.24-21.24 61.16-20.16Q62.08-19.08 62.08-17.56L62.08-17.56Q62.08-16.08 61.22-15.14Q60.36-14.20 58.96-14.20L58.96-14.20Q57.60-14.20 56.80-14.90Q56-15.60 56-16.76L56-16.76Q56-18.68 57.76-19.88L57.76-19.88Q57.60-19.92 57.28-19.92L57.28-19.92Q56.88-19.92 56.64-19.84L56.64-19.84Q55.12-19.60 54.06-18Q53-16.40 53-14.72L53-14.72L53-4.12Q53-2.28 53.90-1.56Q54.80-0.84 56.76-0.84L56.76-0.84L56.76 0Q56.20 0 55.84-0.04L55.84-0.04Q51.76-0.16 50.40-0.16L50.40-0.16Q49.32-0.16 45.48-0.04L45.48-0.04Q45.16 0 44.68 0L44.68 0L44.68-0.84Q46.12-0.84 46.68-1.46Q47.24-2.08 47.24-3.72L47.24-3.72L47.24-16.32Q47.24-18.16 46.68-19Q46.12-19.84 44.68-19.84L44.68-19.84L44.68-20.68Q45.96-20.56 47.16-20.56L47.16-20.56Q50.72-20.56 53-21.12L53-21.12L53-17.40Q53.76-19.12 55.20-20.18Q56.64-21.24 58.44-21.24L58.44-21.24Z M95.52-3.72Q95.52-2.08 96.10-1.46Q96.68-0.84 98.08-0.84L98.08-0.84L98.08 0Q94.08-0.16 92.80-0.16L92.80-0.16Q91.68-0.16 87.84 0L87.84 0L87.84-0.84Q88.92-0.84 89.34-1.44Q89.76-2.04 89.76-3.72L89.76-3.72L89.76-16.16Q89.76-17.84 89.26-18.66Q88.76-19.48 87.36-19.48L87.36-19.48Q85.88-19.48 84.78-18.24Q83.68-17 83.48-15.20L83.48-15.20L83.48-14.48L83.48-3.72Q83.48-2.08 83.98-1.46Q84.48-0.84 85.80-0.84L85.80-0.84L85.80 0Q81.96-0.16 80.76-0.16L80.76-0.16Q79.64-0.16 75.80 0L75.80 0L75.80-0.84Q76.88-0.84 77.30-1.46Q77.72-2.08 77.72-3.72L77.72-3.72L77.72-16.16Q77.72-17.84 77.28-18.66Q76.84-19.48 75.56-19.48L75.56-19.48Q73.96-19.48 72.82-18.14Q71.68-16.80 71.68-14.84L71.68-14.84L71.68-3.72Q71.68-2.08 72.10-1.46Q72.52-0.84 73.60-0.84L73.60-0.84L73.60 0Q70.08-0.16 68.88-0.16L68.88-0.16Q67.68-0.16 63.36 0L63.36 0L63.36-0.84Q64.80-0.84 65.36-1.46Q65.92-2.08 65.92-3.72L65.92-3.72L65.92-16.32Q65.92-18.16 65.36-19Q64.80-19.84 63.36-19.84L63.36-19.84L63.36-20.68Q64.64-20.56 65.84-20.56L65.84-20.56Q69.40-20.56 71.68-21.12L71.68-21.12L71.68-17.52Q73.44-21.24 77.88-21.24L77.88-21.24Q80.92-21.24 82.28-19.68L82.28-19.68Q83.04-18.88 83.28-17.28L83.28-17.28Q84.32-19.44 86-20.34Q87.68-21.24 89.92-21.24L89.92-21.24Q92.96-21.24 94.32-19.68L94.32-19.68Q94.96-18.96 95.24-17.72Q95.52-16.48 95.52-14.48L95.52-14.48L95.52-3.72Z M111.32-2.72Q114.60-2.72 116.60-5.92L116.60-5.92L117.32-5.68Q116.52-3.08 114.46-1.26Q112.40 0.56 109.32 0.56L109.32 0.56Q105.08 0.56 102.58-2.14Q100.08-4.84 100.08-10.12L100.08-10.12Q100.08-15.52 102.76-18.38Q105.44-21.24 109.88-21.24L109.88-21.24Q117.40-21.24 117.40-12.36L117.40-12.36L106.16-12.36Q106.12-11.76 106.12-10.48L106.12-10.48Q106.12-7.84 106.86-6.08Q107.60-4.32 108.78-3.52Q109.96-2.72 111.32-2.72L111.32-2.72ZM109.64-20.40Q108.20-20.40 107.26-18.62Q106.32-16.84 106.08-13.12L106.08-13.12L112.36-13.12Q112.44-16.28 111.74-18.34Q111.04-20.40 109.64-20.40L109.64-20.40Z M133.24-21.24Q135.04-21.24 135.96-20.16Q136.88-19.08 136.88-17.56L136.88-17.56Q136.88-16.08 136.02-15.14Q135.16-14.20 133.76-14.20L133.76-14.20Q132.40-14.20 131.60-14.90Q130.80-15.60 130.80-16.76L130.80-16.76Q130.80-18.68 132.56-19.88L132.56-19.88Q132.40-19.92 132.08-19.92L132.08-19.92Q131.68-19.92 131.44-19.84L131.44-19.84Q129.92-19.60 128.86-18Q127.80-16.40 127.80-14.72L127.80-14.72L127.80-4.12Q127.80-2.28 128.70-1.56Q129.60-0.84 131.56-0.84L131.56-0.84L131.56 0Q131 0 130.64-0.04L130.64-0.04Q126.56-0.16 125.20-0.16L125.20-0.16Q124.12-0.16 120.28-0.04L120.28-0.04Q119.96 0 119.48 0L119.48 0L119.48-0.84Q120.92-0.84 121.48-1.46Q122.04-2.08 122.04-3.72L122.04-3.72L122.04-16.32Q122.04-18.16 121.48-19Q120.92-19.84 119.48-19.84L119.48-19.84L119.48-20.68Q120.76-20.56 121.96-20.56L121.96-20.56Q125.52-20.56 127.80-21.12L127.80-21.12L127.80-17.40Q128.56-19.12 130-20.18Q131.44-21.24 133.24-21.24L133.24-21.24Z M159.40-28.32L159.40-27.52Q158.04-27.44 157.44-27.20Q156.84-26.96 156.62-26.28Q156.40-25.60 156.40-24.08L156.40-24.08L156.40-4.24Q156.40-2.72 156.62-2.04Q156.84-1.36 157.44-1.12Q158.04-0.88 159.40-0.80L159.40-0.80L159.40 0Q157.24-0.12 153.36-0.12L153.36-0.12Q149.08-0.12 147.04 0L147.04 0L147.04-0.80Q148.36-0.88 148.98-1.12Q149.60-1.36 149.82-2.04Q150.04-2.72 150.04-4.24L150.04-4.24L150.04-24.08Q150.04-25.60 149.82-26.28Q149.60-26.96 148.98-27.20Q148.36-27.44 147.04-27.52L147.04-27.52L147.04-28.32Q149.08-28.20 153.36-28.20L153.36-28.20Q157.24-28.20 159.40-28.32L159.40-28.32Z M176.56-21.24Q179.60-21.24 180.96-19.68L180.96-19.68Q181.64-18.92 181.92-17.72Q182.20-16.52 182.20-14.48L182.20-14.48L182.20-3.72Q182.20-2.08 182.78-1.46Q183.36-0.84 184.76-0.84L184.76-0.84L184.76 0Q180.76-0.16 179.48-0.16L179.48-0.16Q178.28-0.16 174.28 0L174.28 0L174.28-0.84Q175.48-0.84 175.96-1.46Q176.44-2.08 176.44-3.72L176.44-3.72L176.44-16.16Q176.44-17.80 175.90-18.64Q175.36-19.48 173.96-19.48L173.96-19.48Q172.32-19.48 171.16-18.14Q170.00-16.80 170.00-14.84L170.00-14.84L170.00-3.72Q170.00-2.08 170.48-1.46Q170.96-0.84 172.16-0.84L172.16-0.84L172.16 0Q168.48-0.16 167.20-0.16L167.20-0.16Q166.00-0.16 161.68 0L161.68 0L161.68-0.84Q163.12-0.84 163.68-1.46Q164.24-2.08 164.24-3.72L164.24-3.72L164.24-16.32Q164.24-18.16 163.68-19Q163.12-19.84 161.68-19.84L161.68-19.84L161.68-20.68Q162.96-20.56 164.16-20.56L164.16-20.56Q167.72-20.56 170.00-21.12L170.00-21.12L170.00-17.52Q171.80-21.24 176.56-21.24L176.56-21.24Z M205.92-4.40Q205.92-2.56 206.48-1.72Q207.04-0.88 208.48-0.88L208.48-0.88L208.48-0.04Q207.24-0.16 206.00-0.16L206.00-0.16Q202.44-0.16 200.16 0.40L200.16 0.40L200.16-3.04Q198.80 0.56 194.96 0.56L194.96 0.56Q191.20 0.56 188.98-2.18Q186.76-4.92 186.80-10.44L186.80-10.44Q186.80-13.96 187.94-16.38Q189.08-18.80 191.10-20.02Q193.12-21.24 195.72-21.24L195.72-21.24Q198.64-21.24 200.16-19.72L200.16-19.72L200.16-26.52Q200.16-28.36 199.58-29.20Q199.00-30.04 197.60-30.04L197.60-30.04L197.60-30.88Q198.88-30.76 200.08-30.76L200.08-30.76Q203.56-30.76 205.92-31.32L205.92-31.32L205.92-4.40ZM196.60-1.16Q197.92-1.16 198.94-2.12Q199.96-3.08 200.16-4.72L200.16-4.72L200.16-18.72Q199.16-20.08 197.24-20.08L197.24-20.08Q195.12-20.08 193.96-17.64Q192.80-15.20 192.84-10.36L192.84-10.36Q192.80-5.48 193.78-3.32Q194.76-1.16 196.60-1.16L196.60-1.16Z M215.36-31Q217.04-31 218.02-30.18Q219-29.36 219-27.92L219-27.92Q219-26.48 218.02-25.66Q217.04-24.84 215.36-24.84L215.36-24.84Q213.68-24.84 212.70-25.66Q211.72-26.48 211.72-27.92L211.72-27.92Q211.72-29.36 212.70-30.18Q213.68-31 215.36-31L215.36-31ZM218.48-21.12L218.48-3.72Q218.48-2.08 219.06-1.46Q219.64-0.84 221.04-0.84L221.04-0.84L221.04 0Q217.04-0.16 215.72-0.16L215.72-0.16Q214.48-0.16 210.16 0L210.16 0L210.16-0.84Q211.60-0.84 212.16-1.46Q212.72-2.08 212.72-3.72L212.72-3.72L212.72-16.32Q212.72-18.16 212.16-19Q211.60-19.84 210.16-19.84L210.16-19.84L210.16-20.68Q211.44-20.56 212.64-20.56L212.64-20.56Q216.20-20.56 218.48-21.12L218.48-21.12Z M228.04 0.28Q225.48 0.28 224.22-1.04Q222.96-2.36 222.96-4.52L222.96-4.52Q222.96-6.32 223.90-7.50Q224.84-8.68 226.18-9.32Q227.52-9.96 229.60-10.68L229.60-10.68Q231.80-11.44 232.82-12.06Q233.84-12.68 233.84-13.76L233.84-13.76L233.84-16.88Q233.84-18.56 233.06-19.50Q232.28-20.44 230.64-20.44L230.64-20.44Q228.72-20.44 227.72-19.48L227.72-19.48Q228.84-19.08 229.46-18.28Q230.08-17.48 230.08-16.40L230.08-16.40Q230.08-15.04 229.16-14.24Q228.24-13.44 226.92-13.44L226.92-13.44Q225.52-13.44 224.76-14.32Q224.00-15.20 224.00-16.52L224.00-16.52Q224.00-17.64 224.54-18.42Q225.08-19.20 226.20-19.88L226.20-19.88Q227.28-20.52 228.86-20.88Q230.44-21.24 232.32-21.24L232.32-21.24Q234.28-21.24 235.72-20.84Q237.16-20.44 238.12-19.48L238.12-19.48Q239.00-18.60 239.30-17.32Q239.60-16.04 239.60-13.84L239.60-13.84L239.60-2.96Q239.60-2 239.78-1.60Q239.96-1.20 240.48-1.20L240.48-1.20Q241.08-1.20 241.92-1.88L241.92-1.88L242.32-1.20Q240.52 0.28 237.92 0.28L237.92 0.28Q235.72 0.28 234.84-0.60Q233.96-1.48 233.92-2.96L233.92-2.96Q231.92 0.28 228.04 0.28L228.04 0.28ZM231.12-2.28Q232.68-2.28 233.84-3.92L233.84-3.92L233.84-12.12Q233.36-11.32 231.80-10.36L231.80-10.36Q230.24-9.36 229.44-8.36Q228.64-7.36 228.64-5.48L228.64-5.48Q228.64-3.84 229.32-3.06Q230.00-2.28 231.12-2.28L231.12-2.28Z"/></g>
</svg>
</g></svg></svg>